<svg width="380" height="140" viewBox="0 0 380 140" fill="none" xmlns="http://www.w3.org/2000/svg">
<rect width="380" height="140" fill="url(#paint0_radial_148_185)"/>
<path d="M41.0439 58H51.0439V68H56.0439V58H66.0439V68H61.0439V73H66.0439V83H56.0439V73H51.0439V83H41.0439V58ZM71.0244 58H81.0244V63H71.0244V58ZM71.0244 68H81.0244V83H71.0244V68ZM86.0146 63H106.015V83H101.015V68H96.0146V83H86.0146V63ZM111.015 63H131.015V83H126.015V88H116.015V83H111.015V63ZM116.015 68V78H121.015V68H116.015ZM136.015 68H156.015V73H136.015V68ZM161.015 58H186.015V68H176.015V63H171.015V78H176.015V73H186.015V83H161.015V58ZM190.995 63H210.995V83H190.995V63ZM200.995 68V78H205.995V68H200.995ZM215.995 58H225.995V63H215.995V58ZM215.995 68H225.995V83H215.995V68ZM230.985 63H250.985V83H245.985V68H240.985V83H230.985V63ZM255.985 68H275.985V73H255.985V68ZM280.985 58H305.985V83H295.985V73H290.985V83H280.985V58ZM290.985 63V68H295.985V63H290.985ZM310.966 63H330.966V83H320.966V88H310.966V63ZM320.966 68V78H325.966V68H320.966ZM335.966 58H345.966V63H335.966V58ZM335.966 68H345.966V83H335.966V68Z" fill="white"/>
<defs>
<radialGradient id="paint0_radial_148_185" cx="0" cy="0" r="1" gradientUnits="userSpaceOnUse" gradientTransform="translate(190 140) rotate(-90) scale(140 260.578)">
<stop stop-color="#0A100A"/>
<stop offset="0.0001" stop-color="#294427"/>
<stop offset="1" stop-color="#0A100A"/>
</radialGradient>
</defs>
</svg>
